<?xml version="1.0" encoding="iso-8859-1"?>
<!-- Generator: Adobe Illustrator 19.0.0, SVG Export Plug-In . SVG Version: 6.00 Build 0)  -->
<svg version="1.1" id="Capa_1" xmlns="http://www.w3.org/2000/svg" xmlns:xlink="http://www.w3.org/1999/xlink" x="0px" y="0px"
	 viewBox="0 0 436.907 436.907" style="enable-background:new 0 0 436.907 436.907;" xml:space="preserve">
<circle style="fill:#45B39C;" cx="218.453" cy="218.453" r="218.453"/>
<path style="opacity:0.1;enable-background:new    ;" d="M317.45,115.395V95.797c0-2.951-2.392-5.343-5.343-5.343
	c-2.951,0-5.343,2.392-5.343,5.343v19.598h-2.502l-23.223-23.224l-0.003,0.014c-0.976-1.058-2.362-1.731-3.916-1.731
	c-2.951,0-5.343,2.392-5.343,5.343v19.598h-84.851L163.74,92.209l-0.001,0.02c-0.978-1.083-2.378-1.775-3.952-1.775
	c-2.951,0-5.343,2.392-5.343,5.343v19.598h-2.508L128.75,92.209l-0.003,0.014c-0.978-1.079-2.376-1.77-3.948-1.77
	c-2.951,0-5.343,2.392-5.343,5.343v19.598H90.453v41.999v5.88v0.84v175.621v6.72l86.459,86.459
	c13.454,2.591,27.331,3.994,41.541,3.994c120.649,0,218.453-97.805,218.453-218.453c0-4.376-0.166-8.712-0.42-13.025l-90.034-90.034
	H317.45z"/>
<rect x="90.453" y="164.113" style="fill:#E1E6E9;" width="256" height="182.34"/>
<rect x="90.453" y="157.389" style="fill:#EBF0F3;" width="256" height="182.34"/>
<rect x="90.453" y="157.389" style="fill:#E1E6E9;" width="256" height="5.881"/>
<rect x="90.453" y="115.395" style="fill:#E56353;" width="256" height="41.998"/>
<circle style="fill:#CE412D;" cx="124.802" cy="134.758" r="8.008"/>
<path style="fill:#E1E6E9;" d="M124.8,90.453c-2.951,0-5.343,2.392-5.343,5.343v39.023c0,2.951,2.392,5.343,5.343,5.343
	c2.952,0,5.343-2.392,5.343-5.343V95.797C130.143,92.846,127.752,90.453,124.8,90.453z"/>
<circle style="fill:#CE412D;" cx="159.788" cy="134.758" r="8.008"/>
<path style="fill:#E1E6E9;" d="M159.787,90.453c-2.951,0-5.343,2.392-5.343,5.343v39.023c0,2.951,2.392,5.343,5.343,5.343
	c2.952,0,5.343-2.392,5.343-5.343V95.797C165.13,92.846,162.738,90.453,159.787,90.453z"/>
<circle style="fill:#CE412D;" cx="277.129" cy="134.758" r="8.008"/>
<path style="fill:#E1E6E9;" d="M277.12,90.453c-2.951,0-5.343,2.392-5.343,5.343v39.023c0,2.951,2.392,5.343,5.343,5.343
	c2.952,0,5.343-2.392,5.343-5.343V95.797C282.463,92.846,280.072,90.453,277.12,90.453z"/>
<circle style="fill:#CE412D;" cx="312.115" cy="134.758" r="8.008"/>
<path style="fill:#E1E6E9;" d="M312.107,90.453c-2.951,0-5.343,2.392-5.343,5.343v39.023c0,2.951,2.393,5.343,5.343,5.343
	c2.952,0,5.343-2.392,5.343-5.343V95.797C317.45,92.846,315.058,90.453,312.107,90.453z"/>
<rect x="226.372" y="178.244" style="fill:#44C4A1;" width="24.842" height="24.842"/>
<rect x="267.059" y="178.244" style="fill:#64798A;" width="24.842" height="24.842"/>
<rect x="307.746" y="178.244" style="fill:#E56353;" width="24.842" height="24.842"/>
<g>
	<rect x="104.308" y="220.262" style="fill:#64798A;" width="24.842" height="24.842"/>
	<rect x="144.998" y="220.262" style="fill:#64798A;" width="24.842" height="24.842"/>
	<rect x="185.685" y="220.262" style="fill:#64798A;" width="24.842" height="24.842"/>
</g>
<rect x="226.372" y="220.262" style="fill:#44C4A1;" width="24.842" height="24.842"/>
<rect x="267.059" y="220.262" style="fill:#64798A;" width="24.842" height="24.842"/>
<rect x="307.746" y="220.262" style="fill:#E56353;" width="24.842" height="24.842"/>
<g>
	<rect x="104.308" y="262.281" style="fill:#64798A;" width="24.842" height="24.842"/>
	<rect x="144.998" y="262.281" style="fill:#64798A;" width="24.842" height="24.842"/>
	<rect x="185.685" y="262.281" style="fill:#64798A;" width="24.842" height="24.842"/>
</g>
<rect x="226.372" y="262.281" style="fill:#44C4A1;" width="24.842" height="24.842"/>
<rect x="267.059" y="262.281" style="fill:#64798A;" width="24.842" height="24.842"/>
<rect x="307.746" y="262.281" style="fill:#E56353;" width="24.842" height="24.842"/>
<g>
	<rect x="104.308" y="304.299" style="fill:#64798A;" width="24.842" height="24.842"/>
	<rect x="144.998" y="304.299" style="fill:#64798A;" width="24.842" height="24.842"/>
	<rect x="185.685" y="304.299" style="fill:#64798A;" width="24.842" height="24.842"/>
</g>
<rect x="226.372" y="304.299" style="fill:#44C4A1;" width="24.842" height="24.842"/>
<g>
</g>
<g>
</g>
<g>
</g>
<g>
</g>
<g>
</g>
<g>
</g>
<g>
</g>
<g>
</g>
<g>
</g>
<g>
</g>
<g>
</g>
<g>
</g>
<g>
</g>
<g>
</g>
<g>
</g>
</svg>
